<?xml version='1.0' encoding='utf-8'?>
<!DOCTYPE svg PUBLIC '-//W3C//DTD SVG 1.1//EN' 'http://www.w3.org/Graphics/SVG/1.1/DTD/svg11.dtd'>
<svg version="1.1" xmlns="http://www.w3.org/2000/svg" viewBox="0 0 512 512" xmlns:xlink="http://www.w3.org/1999/xlink" enable-background="new 0 0 512 512">
  <g>
    <g>
      <path d="m480.6,137.3h-67.3v-105.9c0-11.3-9.1-20.4-20.4-20.4-11.3,0-20.4,9.1-20.4,20.4v105.9h-67.3c-11.3,0-20.4,9.1-20.4,20.4v145.1c0,51.1 37.3,93.7 86.1,102-7.2,31.6-38,55.3-74.8,55.3-42.2,0-76.5-31.2-76.5-69.5v-194.6c0-47-46.8-85.2-104.3-85.2s-104.3,38.2-104.3,85.2v181c0,11.3 9.1,20.4 20.4,20.4s20.4-9.1 20.4-20.4v-181c0-24.1 29-44.4 63.4-44.4 34.4,0 63.4,20.3 63.4,44.4v194.7c0,60.9 52.6,110.4 117.3,110.4 59.4,0 108.6-41.8 116.3-95.8 50.1-7.2 88.7-50.4 88.7-102.4v-145.2c0.1-11.3-9-20.4-20.3-20.4zm-20.6,160.5c0,37.1-30.1,67.2-67.2,67.2-37.1,0-67.2-30.1-67.2-67.2v-119.7h134.4v119.7z"/>
    </g>
  </g>
</svg>
