<?xml version='1.0' encoding='iso-8859-1'?>
<!DOCTYPE svg PUBLIC '-//W3C//DTD SVG 1.1//EN' 'http://www.w3.org/Graphics/SVG/1.1/DTD/svg11.dtd'>
<svg version="1.1" xmlns="http://www.w3.org/2000/svg" viewBox="0 0 297 297" xmlns:xlink="http://www.w3.org/1999/xlink" enable-background="new 0 0 297 297">
  <g>
    <path d="m294.321,129.816l-140.255-126.37c-3.079-2.774-7.757-2.776-10.838-0.006l-140.543,126.37c-2.494,2.244-3.349,5.792-2.148,8.925 1.202,3.133 4.208,5.2 7.565,5.2h23.944l111.124-98.928c3.098-2.837 7.85-2.839 10.947,0.001l111.117,98.927h23.664c3.354,0 6.36-2.066 7.563-5.196 1.202-3.131 0.353-6.678-2.14-8.923z"/>
    <path d="m42.077,156.72v130.816c0,4.473 3.627,8.101 8.101,8.101h196.928c4.473,0 8.101-3.628 8.101-8.101v-130.816l-106.562-94.752-106.568,94.752zm123.553-13.594c0-4.474 3.627-8.102 8.101-8.102 4.474,0 8.101,3.628 8.101,8.102v25.314h16.961c4.474,0 8.101,3.627 8.101,8.101s-3.627,8.101-8.101,8.101h-8.607v8.607c0,20.12-14.389,36.938-33.416,40.717v42.822c0,4.474-3.627,8.101-8.101,8.101-4.474,0-8.1-3.627-8.1-8.101v-42.822c-19.026-3.779-33.416-20.597-33.416-40.717v-8.607h-8.606c-4.474,0-8.101-3.627-8.101-8.101s3.627-8.101 8.101-8.101h16.961v-25.314c0-4.474 3.627-8.102 8.101-8.102 4.474,0 8.101,3.628 8.101,8.102v25.314h33.922v-25.314z"/>
    <path d="m123.355,193.249c0,13.959 11.356,25.315 25.314,25.315 13.959,0 25.316-11.356 25.316-25.315v-8.607h-50.63v8.607z"/>
  </g>
</svg>
