<?xml version="1.0" ?><!DOCTYPE svg  PUBLIC '-//W3C//DTD SVG 1.1//EN'  'http://www.w3.org/Graphics/SVG/1.1/DTD/svg11.dtd'><svg enable-background="new 0 0 128 128" id="Слой_1" version="1.1" viewBox="0 0 128 128" xml:space="preserve" xmlns="http://www.w3.org/2000/svg" xmlns:xlink="http://www.w3.org/1999/xlink"><g><path d="M95.4,17.3l-3.1-2.5c-4.3,5.3-8.2,11.1-11.7,17L78,30.4l-1,1.8c-9.1,16.6-11.4,27.6-11.9,43.1   c-1.1,0-2.2,0-3.3,0C61.4,59.8,59.1,48.7,50,32.1l-1-1.8l-2.6,1.5c-3.4-6-7.3-11.7-11.7-17l-3.1,2.5c4.2,5.2,7.9,10.7,11.2,16.5   l-2.6,1.4l1,1.8c8.5,15.5,10.4,25,10.7,40.3C47.5,79,45,81.6,45,84.7v30.8c0,6,8.2,10.5,19,10.5c10.8,0,19-4.5,19-10.5V84.7   c0-3.3-2.9-6.1-7.9-7.8c0.4-15.1,2.2-24.5,10.7-39.9l1-1.8l-2.6-1.4C87.5,28,91.2,22.4,95.4,17.3z M47.4,35.8   C56.3,52.3,57.9,62.7,58,83.3c-0.6,0.2-1.4,0.2-2,0c0-18.7-1.2-29.4-10.3-46.5L47.4,35.8z M64,122c-8.6,0-15-3.4-15-6.5V90.6   c3.4,2.2,8.8,3.5,15,3.5c6.2,0,11.6-1.4,15-3.5v24.9C79,118.6,72.6,122,64,122z M79,84.7c0,2.2-5.8,5.5-15,5.5   c-9.2,0-15-3.3-15-5.5c0-1,1.1-2.1,3-3.1c0,1,0,1.9,0,2.9v1.1l0.9,0.6c1.2,0.8,2.6,1.2,4.1,1.2c1.5,0,2.9-0.4,4.1-1.2l0.9-0.6v-1.1   c0-1.8,0-3.6,0-5.3c1-0.1,2.1-0.1,3.1,0c0,1.7,0,3.5,0,5.3v1.1l0.9,0.6c1.2,0.8,2.6,1.2,4.1,1.2s2.9-0.4,4.1-1.2l0.9-0.6v-1.1   c0-1.2,0-2.3,0-3.4C77.7,82.3,79,83.7,79,84.7z M71,83.3c-0.3,0.1-0.7,0.1-1,0.1c-0.3,0-0.7-0.1-1-0.1c0.1-20.6,1.7-30.9,10.6-47.5   l1.8,1C72.2,53.9,71.1,64.5,71,83.3z" fill="#3EBBC4"/><g opacity="0.3"><rect fill="#3EBBC4" height="8" width="4" x="91.9" y="2"/></g><g opacity="0.3"><rect fill="#3EBBC4" height="8" transform="matrix(0.7071 0.7071 -0.7071 0.7071 35.8944 -68.7506)" width="4" x="98.9" y="4.9"/></g><g opacity="0.3"><rect fill="#3EBBC4" height="4" width="8" x="99.9" y="14"/></g></g></svg>