<svg id="icons" enable-background="new 0 0 64 64" height="512" viewBox="0 0 64 64" width="512" xmlns="http://www.w3.org/2000/svg"><path d="m5.284 57.704 6.005 6.005c.195.195.451.293.707.293.002 0 .003-.001.005-.001.003 0 .006.002.009.002h46c.553 0 1-.447 1-1v-55.999c0-.294-.132-.552-.333-.734l-5.979-5.979c-.092-.093-.203-.166-.326-.217-.122-.051-.252-.077-.382-.077h-46c-.13 0-.26.026-.382.077-.245.102-.439.296-.541.541-.05.122-.077.252-.077.382v55.999c0 .13.026.26.077.382.051.123.124.234.217.326zm46.292-55.707 4.007 4.007h-43.172l-4.007-4.007zm2.432 57.003h-37.994v-47.993h37.994v4.996h-1c-.553 0-1 .447-1 1v4c0 .553.447 1 1 1h1v26.001h-1c-.553 0-1 .447-1 1v4c0 .553.447 1 1 1h1zm3.002-36.997v26.001h-1.002v-26.001zm0-2h-3.002v-2h3.002zm-3.002 32.001v-2h3.002v2zm-42.998-44.573v53.171l-4.02-4.02v-53.171zm2 54.572v-53.999h44v7.999h-1.002v-5.996c0-.553-.447-1-1-1h-39.994c-.553 0-1 .447-1 1v49.993c0 .553.447 1 1 1h39.994c.553 0 1-.447 1-1v-5.996h1.002v7.999z"/><path d="m36.882 18.516c-.352-.635-1.396-.635-1.748 0l-10.01 18.018c-.172.31-.168.688.012.992.18.306.508.493.862.493h20.02.02c.553 0 1-.447 1-1 0-.243-.087-.467-.231-.64zm-9.185 17.503 8.311-14.958 8.311 14.958z"/><path d="m35.176 27.448-2 3c-.018.026-.02.056-.034.083-.032.06-.057.12-.076.187-.021.065-.034.13-.04.197-.003.03-.018.057-.018.088 0 .033.016.061.019.093.007.069.02.135.041.201.019.061.041.116.07.172.029.055.063.104.104.154.043.054.09.102.145.146.024.02.039.048.066.066.034.022.072.032.107.051.034.017.066.034.103.048.112.041.228.069.344.069h.001 1.132l-.964 1.445c-.307.46-.183 1.08.277 1.387.171.113.363.168.554.168.323 0 .641-.156.833-.445l2-3c.018-.026.02-.056.034-.083.032-.06.057-.12.076-.187.021-.066.034-.13.04-.197.003-.03.018-.057.018-.088 0-.033-.016-.061-.019-.093-.007-.069-.02-.134-.041-.201-.019-.061-.041-.116-.07-.172s-.063-.104-.104-.154c-.044-.054-.091-.102-.146-.146-.024-.02-.039-.048-.066-.066-.025-.017-.056-.02-.082-.033-.061-.033-.123-.058-.19-.078-.064-.019-.126-.032-.192-.038-.031-.003-.058-.019-.09-.019h-1.132l.964-1.445c.307-.46.183-1.08-.277-1.387-.462-.307-1.083-.183-1.387.277z"/><path d="m46.018 42.007h-20.02c-.553 0-1 .447-1 1s.447 1 1 1h20.02c.553 0 1-.447 1-1s-.448-1-1-1z"/><path d="m46.018 45.006h-20.02c-.553 0-1 .447-1 1s.447 1 1 1h20.02c.553 0 1-.447 1-1s-.448-1-1-1z"/><path d="m46.018 48.005h-20.02c-.553 0-1 .447-1 1s.447 1 1 1h20.02c.553 0 1-.447 1-1s-.448-1-1-1z"/><path d="m19.506 33.003c-1.379 0-2.5 1.121-2.5 2.5s1.121 2.5 2.5 2.5 2.5-1.121 2.5-2.5-1.121-2.5-2.5-2.5zm0 3c-.275 0-.5-.225-.5-.5s.225-.5.5-.5.5.225.5.5-.225.5-.5.5z"/></svg>