<?xml version="1.0" ?><!DOCTYPE svg  PUBLIC '-//W3C//DTD SVG 1.1//EN'  'http://www.w3.org/Graphics/SVG/1.1/DTD/svg11.dtd'><svg enable-background="new 0 0 128 128" id="Слой_1" version="1.1" viewBox="0 0 128 128" xml:space="preserve" xmlns="http://www.w3.org/2000/svg" xmlns:xlink="http://www.w3.org/1999/xlink"><g><path d="M13,124H3V44C3,24.7,18.7,9,38,9h72v10H38c-13.8,0-25,11.2-25,25V124z M7,120h2V44c0-16,13-29,29-29h68v-2   H38C20.9,13,7,26.9,7,44V120z" fill="#3EBBC4"/></g><g><g><path d="M45.8,124h-4V24c0-2.5,0.4-5,1.2-7.3l3.8,1.3c-0.7,1.9-1,3.9-1,6V124z" fill="#3EBBC4"/></g><g><path d="M77.4,12.1C74,8.2,69.1,6,63.9,6c-5.1,0-10,2.2-13.4,6l-3-2.7C51.7,4.7,57.7,2,63.9,2    c6.3,0,12.4,2.7,16.5,7.5L77.4,12.1z" fill="#3EBBC4"/></g><g><path d="M82,38.3L81.9,24c0-2-0.4-4-1-5.9l3.8-1.3c0.8,2.3,1.2,4.8,1.3,7.3L86,38.3L82,38.3z" fill="#3EBBC4"/></g><g><rect fill="#3EBBC4" height="24.8" width="4" x="82" y="56.7"/></g><g><g><path d="M95,58.7H72.7V47.5c0-6.2,5-11.2,11.2-11.2c6.2,0,11.2,5,11.2,11.2V58.7z M76.7,54.7H91v-7.2     c0-4-3.2-7.2-7.2-7.2s-7.2,3.2-7.2,7.2V54.7z" fill="#3EBBC4"/></g><g><path d="M84,111c-0.5,0-1.1,0-1.6-0.1C70,110.2,60,100.3,59.1,88c-0.6-7.8,2.4-15.3,8.3-20.5     c3.4-3,5.3-7.4,5.3-12h2v-0.7H93v0.5h2c0,4.6,2.1,9.1,5.6,12.3C105.9,72.2,109,79,109,86c0,6.7-2.6,12.9-7.3,17.6     C96.9,108.4,90.7,111,84,111z M76.4,58.7c-0.7,4.5-3,8.7-6.4,11.8c-4.9,4.4-7.4,10.7-6.9,17.2c0.8,10.3,9.2,18.6,19.5,19.3     c6.1,0.4,11.9-1.8,16.2-6.1c4-4,6.1-9.2,6.1-14.8c0-5.9-2.5-11.6-7-15.6c-3.5-3.2-5.8-7.3-6.6-11.8H76.4z" fill="#3EBBC4"/></g></g><g><rect fill="#3EBBC4" height="4" width="16.1" x="76" y="79.5"/></g></g></svg>