<?xml version="1.0" ?><!DOCTYPE svg  PUBLIC '-//W3C//DTD SVG 1.1//EN'  'http://www.w3.org/Graphics/SVG/1.1/DTD/svg11.dtd'><svg enable-background="new 0 0 128 128" id="Слой_1" version="1.1" viewBox="0 0 128 128" xml:space="preserve" xmlns="http://www.w3.org/2000/svg" xmlns:xlink="http://www.w3.org/1999/xlink"><g><path d="M82,58.9c-3.9-3.5-6.2-8.5-6.2-13.6V37c0-5.9-4.2-10.8-9.8-11.8V2h-4v23.2C56.3,26,51.8,31,51.8,37v8.6   c0,5.1-2.1,9.9-5.8,13.2c-6.3,5.6-9.6,13.7-8.9,22.2c1,13.3,11.8,24,25.2,24.9c0.6,0,1.2,0.1,1.8,0.1c0,0,0,0,0,0   c7.2,0,14-2.8,19.1-7.9C88.2,93,91,86.2,91,79C91,71.3,87.7,64,82,58.9z M55.8,37c0-4.4,3.6-8,8-8c4.4,0,8,3.6,8,8v8h-16V37z    M80.3,95.3C75.9,99.6,70.1,102,64,102c0,0,0,0,0,0c-0.5,0-1,0-1.5,0c-11.4-0.7-20.6-9.8-21.4-21.2c-0.5-7.2,2.2-14.1,7.6-18.9   c3.7-3.3,6.1-7.9,6.9-12.8H62v23h-6.8v4h17.5v-4H66V49h6.2c0.9,4.9,3.4,9.4,7.2,12.9C84.2,66.2,87,72.5,87,79   C87,85.1,84.6,90.9,80.3,95.3z" fill="#3EBBC4"/><g opacity="0.3"><g><rect fill="#3EBBC4" height="4" width="10" x="19.1" y="78.9"/></g><g><rect fill="#3EBBC4" height="10" transform="matrix(0.7071 0.7071 -0.7071 0.7071 87.6635 6.682)" width="4" x="33.8" y="104.2"/></g><g><rect fill="#3EBBC4" height="10" width="4" x="62" y="115.9"/></g><g><rect fill="#3EBBC4" height="4" transform="matrix(0.7071 0.7072 -0.7072 0.7071 104.2124 -33.2461)" width="10" x="87.2" y="107.2"/></g><g><rect fill="#3EBBC4" height="4" width="10" x="98.9" y="78.9"/></g><g><rect fill="#3EBBC4" height="10" transform="matrix(0.7071 0.7071 -0.7071 0.7071 64.2738 -49.786)" width="4" x="90.2" y="47.7"/></g><g><rect fill="#3EBBC4" height="4" transform="matrix(0.7071 0.7071 -0.7071 0.7071 47.7369 -9.8566)" width="10" x="30.8" y="50.7"/></g></g></g></svg>