<svg id="icons" enable-background="new 0 0 64 64" height="512" viewBox="0 0 64 64" width="512" xmlns="http://www.w3.org/2000/svg"><path d="m58 .992c-.553 0-1 .447-1 1v9h-51c-3.309 0-6 2.691-6 6v40c0 3.309 2.691 6 6 6 .553 0 1-.447 1-1v-9h51c3.309 0 6-2.691 6-6v-40c0-3.308-2.691-6-6-6zm4 6v35.54c-.827-.742-1.857-1.257-3-1.45v-37.948c1.721.447 3 2 3 3.858zm-60 50c0-1.858 1.279-3.411 3-3.858v7.717c-1.721-.448-3-2-3-3.859zm56-6h-52c-1.537 0-2.938.586-4 1.54v-35.54c0-2.206 1.794-4 4-4h51v29c0 .553.447 1 1 1 2.206 0 4 1.794 4 4s-1.794 4-4 4z"/><path d="m46.013 35.025c-.553 0-1 .447-1 1v5.963h-11.996v-.982c0-.553-.447-1-1-1s-1 .447-1 1v4c0 .553.447 1 1 1s1-.447 1-1v-1.018h12.996c.553 0 1-.447 1-1v-6.963c0-.552-.448-1-1-1z"/><path d="m14.728 30.301c-.391-.391-1.023-.391-1.414 0s-.391 1.023 0 1.414l.293.293-.293.293c-.391.391-.391 1.023 0 1.414.195.195.451.293.707.293s.512-.098.707-.293l.293-.293.293.293c.195.195.451.293.707.293s.512-.098.707-.293c.391-.391.391-1.023 0-1.414l-.293-.293.293-.293c.391-.391.391-1.023 0-1.414s-1.023-.391-1.414 0l-.293.293z"/><path d="m47.013 27.812v-6.802c0-.553-.447-1-1-1h-8.997v-1.016c0-.553-.447-1-1-1h-10.998c-.553 0-1 .447-1 1v1.016h-8.998c-.553 0-1 .447-1 1v6.108c-2.282.462-4.006 2.483-4.006 4.899 0 2.414 1.721 4.435 4 4.898v6.072c0 .553.447 1 1 1 .001 0 .002-.001.003-.001s.002.001.003.001h12.997v1.018c0 .553.447 1 1 1s1-.447 1-1v-4c0-.553-.447-1-1-1s-1 .447-1 1v.982h-12.003v-5.072c2.279-.464 4-2.484 4-4.898 0-2.412-1.718-4.432-3.994-4.898v-5.109h7.998v1c0 .553.447 1 1 1h10.998c.553 0 1-.447 1-1v-1h7.997v5.963c0 .056.022.104.031.156.009.054.002.105.02.158l2 6.037c.139.42.529.686.949.686.104 0 .21-.017.314-.051.524-.174.809-.739.635-1.264zm-28.999 4.206c0 1.654-1.346 3-3 3s-3-1.346-3-3 1.346-3 3-3 3 1.345 3 3zm17.002-10.008h-8.998v-2.016h8.998z"/><path d="m57.98 59.825c-.013-.068-.026-.134-.053-.198-.01-.021-.008-.045-.019-.066-.018-.035-.049-.058-.07-.09-.038-.059-.077-.112-.127-.162-.048-.048-.101-.086-.156-.122-.034-.022-.057-.055-.094-.073l-4-2c-.01-.005-.021-.004-.029-.008-.013-.006-.023-.016-.036-.021-.059-.024-.121-.025-.182-.038-.057-.012-.11-.031-.167-.032-.011-.001-.021-.007-.033-.007h-40c-.553 0-1 .447-1 1v4c0 .553.447 1 1 1h40 .001c.002 0 .003-.001.005-.001.128-.001.256-.026.376-.076.014-.006.024-.016.038-.021.009-.005.019-.003.027-.007l4-2c.01-.005.016-.014.024-.02.103-.055.195-.125.274-.214.017-.02.027-.041.043-.062.037-.049.077-.096.105-.152.011-.021.009-.045.019-.066.026-.064.04-.13.053-.198.012-.062.024-.121.024-.183s-.011-.121-.023-.183zm-7.672-.524c-.391.391-.391 1.023 0 1.414l.293.293h-26.587v-2h26.587zm2.904 1.49-.783-.783.783-.783 1.566.783zm-37.198-1.783v2h-1.999v-2zm4 1c-.553 0-1 .447-1 1h-1v-2h1c0 .553.447 1 1 1s1-.447 1-1h1v2h-1c0-.553-.448-1-1-1z"/></svg>