<svg id="icons" enable-background="new 0 0 64 64" height="512" viewBox="0 0 64 64" width="512" xmlns="http://www.w3.org/2000/svg"><path d="m1.001 6.001v51.998c0 2.757 2.243 5 5 5h51.998c2.757 0 5-2.243 5-5v-51.998c0-2.757-2.243-5-5-5h-51.998c-2.757 0-5 2.243-5 5zm59.998 0v51.998c0 1.654-1.346 3-3 3h-51.998c-1.654 0-3-1.346-3-3v-51.998c0-1.654 1.346-3 3-3h51.998c1.654 0 3 1.346 3 3z"/><path d="m6 56.999c0 .553.447 1 1 1h50c.553 0 1-.447 1-1v-50c0-.553-.447-1-1-1h-50c-.553 0-1 .447-1 1zm2-49h48v48h-48z"/><path d="m34.134 16.146c-.046-.007-.087-.027-.134-.027-.007 0-.012.004-.019.004-.655-.082-1.319-.139-1.997-.139-.668 0-1.322.054-1.969.134-.006 0-.01-.003-.016-.003-.041 0-.076.019-.115.023-7.831 1.033-13.9 7.735-13.9 15.845 0 8.115 6.077 14.822 13.916 15.85.029.002.055.017.084.017.004 0 .008-.002.012-.002.652.081 1.313.137 1.988.137.671 0 1.328-.055 1.978-.136.008.001.015.005.022.005.059 0 .108-.023.164-.033 7.8-1.062 13.836-7.749 13.836-15.837 0-8.093-6.044-14.784-13.85-15.838zm-1.134 1.889v1.964h-2v-1.966c.326-.022.652-.05.984-.05.343 0 .679.028 1.016.052zm-2.016 27.898v-1.965h2v1.965c-.332.023-.662.051-1 .051s-.668-.028-1-.051zm4-.282v-2.684c0-.553-.447-1-1-1h-4c-.553 0-1 .447-1 1v2.684c-6.281-1.378-11-6.979-11-13.669 0-6.694 4.727-12.299 11.016-13.671v2.688c0 .553.447 1 1 1h4c.553 0 1-.447 1-1v-2.68c6.273 1.384 10.984 6.98 10.984 13.663 0 6.69-4.718 12.291-11 13.669z"/><path d="m31.984 11.983c-11.028 0-20 8.972-20 19.999 0 11.028 8.972 20.001 20 20.001s20-8.973 20-20.001c0-11.027-8.971-19.999-20-19.999zm0 38c-9.925 0-18-8.075-18-18.001 0-9.925 8.075-17.999 18-17.999s18 8.074 18 17.999c0 9.926-8.075 18.001-18 18.001z"/><path d="m25 29c-1.654 0-3 1.346-3 3s1.346 3 3 3 3-1.346 3-3-1.346-3-3-3zm0 4c-.552 0-1-.448-1-1s.448-1 1-1 1 .448 1 1-.448 1-1 1z"/><path d="m38.999 29c-1.654 0-3 1.346-3 3s1.346 3 3 3 3-1.346 3-3-1.346-3-3-3zm0 4c-.552 0-1-.448-1-1s.448-1 1-1 1 .448 1 1-.448 1-1 1z"/><path d="m32.03 31h-.01c-.552 0-.994.447-.994 1s.452 1 1.005 1c.552 0 1-.447 1-1s-.449-1-1.001-1z"/></svg>