<svg id="icons" enable-background="new 0 0 64 64" height="512" viewBox="0 0 64 64" width="512" xmlns="http://www.w3.org/2000/svg"><path d="m54.582 2.846c-1.336 0-2.592.521-3.536 1.465-1.15 1.15-1.604 2.725-1.396 4.224l-12.422 12.421c-1.713-1.057-3.683-1.729-5.798-1.893v-5.053c0-2.757-2.243-5-5-5h-14.011v-4.007c0-.553-.447-1-1-1h-5v-3.002c0-.553-.447-1-1-1s-1 .447-1 1v61.998c0 .553.447 1 1 1s1-.447 1-1v-2.982h5c.553 0 1-.447 1-1v-4h3.002v7.982c0 .553.447 1 1 1s1-.447 1-1v-7.982h1v7.982c0 .553.447 1 1 1s1-.447 1-1v-7.982h1v7.982c0 .553.447 1 1 1s1-.447 1-1v-7.982h3.009c2.757 0 5-2.243 5-5v-5.045c6.7-.518 11.997-6.123 11.997-12.954 0-2.503-.723-4.835-1.953-6.821l12.418-12.418c.229.031.456.067.69.067 1.335 0 2.591-.521 3.535-1.465 1.949-1.949 1.949-5.121 0-7.07-.944-.945-2.2-1.465-3.535-1.465zm-23.152 24.268c2.278.468 3.997 2.488 3.997 4.903s-1.719 4.436-3.997 4.903zm-25.011 30.903v-52.014h4v3.987c0 .007-.004.013-.004.02s.004.013.004.02v5.967c0 .007-.004.013-.004.02s.004.013.004.02v7.961c0 .007-.004.013-.004.02s.004.013.004.02v7.961c0 .007-.004.013-.004.02s.004.013.004.02v7.961c0 .007-.004.013-.004.02s.004.013.004.02v7.961c0 .007-.004.013-.004.02s.004.013.004.02v5.962c0 .007-.004.013-.004.02s.004.013.004.02v3.98h-4zm6-9.001h1.001c.553 0 1-.447 1-1s-.447-1-1-1h-1.001v-6h1.001c.553 0 1-.447 1-1s-.447-1-1-1h-1.001v-6h1.001c.553 0 1-.447 1-1s-.447-1-1-1h-1.001v-6h1.001c.553 0 1-.447 1-1s-.447-1-1-1h-1.001v-6h1.001c.553 0 1-.447 1-1s-.447-1-1-1h-1.001v-4.006h13.011v42.007h-13.011zm15.011 3.816v-41.638c1.161.414 2 1.514 2 2.815v5.964c-.001.014-.008.025-.008.039s.007.025.008.039v5.922c-.001.014-.008.025-.008.039s.007.025.008.039v11.932c-.001.014-.008.025-.008.039s.007.025.008.039v5.922c-.001.014-.008.025-.008.039s.007.025.008.039v5.955c0 1.302-.839 2.402-2 2.816zm4-9.86v-4.03c3.386-.491 5.997-3.404 5.997-6.924s-2.611-6.433-5.997-6.924v-4.03c5.597.512 9.997 5.226 9.997 10.954s-4.401 10.442-9.997 10.954zm8.851-19.411c-.436-.507-.908-.979-1.416-1.414l11.545-11.545c.182.275.394.537.636.779.24.24.502.452.779.636zm16.422-13.594c-1.134 1.134-3.109 1.132-4.243 0-1.17-1.17-1.17-3.072 0-4.242.567-.566 1.32-.879 2.122-.879.801 0 1.555.313 2.121.879 1.17 1.17 1.17 3.072 0 4.242z"/></svg>